<svg width="179" height="179" viewBox="0 0 179 179" fill="none" xmlns="http://www.w3.org/2000/svg">
<path d="M117.223 18.4258C117.439 17.7235 117.514 16.9856 117.445 16.2541C117.376 15.5227 117.163 14.812 116.819 14.1627C116.475 13.5134 116.007 12.9382 115.441 12.47C114.875 12.0017 114.222 11.6495 113.52 11.4336C112.817 11.2176 112.079 11.1421 111.348 11.2113C110.616 11.2805 109.906 11.4931 109.257 11.837C108.607 12.1808 108.032 12.6492 107.564 13.2154C107.096 13.7815 106.743 14.4344 106.527 15.1366L61.7774 160.574C61.3412 161.992 61.4863 163.526 62.1808 164.837C62.8752 166.148 64.0621 167.13 65.4804 167.566C66.8987 168.002 68.4322 167.857 69.7434 167.163C71.0547 166.468 72.0364 165.282 72.4726 163.863L117.223 18.4258ZM54.3041 46.3833C54.825 46.9029 55.2383 47.5202 55.5203 48.1998C55.8023 48.8794 55.9475 49.6079 55.9475 50.3437C55.9475 51.0795 55.8023 51.808 55.5203 52.4876C55.2383 53.1672 54.825 53.7845 54.3041 54.3041L19.0971 89.4999L54.3041 124.696C55.3545 125.746 55.9446 127.171 55.9446 128.656C55.9446 130.142 55.3545 131.566 54.3041 132.617C53.2538 133.667 51.8292 134.257 50.3437 134.257C48.8583 134.257 47.4337 133.667 46.3834 132.617L7.22711 93.4603C6.70619 92.9407 6.29289 92.3234 6.01089 91.6438C5.7289 90.9642 5.58374 90.2357 5.58374 89.4999C5.58374 88.7642 5.7289 88.0356 6.01089 87.356C6.29289 86.6764 6.70619 86.0592 7.22711 85.5396L46.3834 46.3833C46.903 45.8624 47.5203 45.4491 48.1998 45.1671C48.8794 44.8851 49.608 44.7399 50.3437 44.7399C51.0795 44.7399 51.8081 44.8851 52.4876 45.1671C53.1672 45.4491 53.7845 45.8624 54.3041 46.3833ZM124.696 46.3833C124.175 46.9029 123.762 47.5202 123.48 48.1998C123.198 48.8794 123.052 49.6079 123.052 50.3437C123.052 51.0795 123.198 51.808 123.48 52.4876C123.762 53.1672 124.175 53.7845 124.696 54.3041L159.903 89.4999L124.696 124.696C124.176 125.216 123.763 125.833 123.482 126.513C123.2 127.192 123.055 127.921 123.055 128.656C123.055 129.392 123.2 130.12 123.482 130.8C123.763 131.479 124.176 132.096 124.696 132.617C125.216 133.137 125.833 133.549 126.513 133.831C127.192 134.112 127.921 134.257 128.656 134.257C129.392 134.257 130.12 134.112 130.8 133.831C131.479 133.549 132.097 133.137 132.617 132.617L171.773 93.4603C172.294 92.9407 172.707 92.3234 172.989 91.6438C173.271 90.9642 173.416 90.2357 173.416 89.4999C173.416 88.7642 173.271 88.0356 172.989 87.356C172.707 86.6764 172.294 86.0592 171.773 85.5396L132.617 46.3833C132.097 45.8624 131.48 45.4491 130.8 45.1671C130.121 44.8851 129.392 44.7399 128.656 44.7399C127.92 44.7399 127.192 44.8851 126.512 45.1671C125.833 45.4491 125.215 45.8624 124.696 46.3833Z" fill="url(#paint0_linear_315_2)"/>
<defs>
<linearGradient id="paint0_linear_315_2" x1="6" y1="89" x2="173" y2="89" gradientUnits="userSpaceOnUse">
<stop stop-color="#39C1CD"/>
<stop offset="1" stop-color="#C4F073"/>
</linearGradient>
</defs>
</svg>
