<svg width="17" height="12" viewBox="0 0 17 12" fill="none" xmlns="http://www.w3.org/2000/svg">
<path d="M7.00002 10.796V1.20398L1.51902 5.99998L7.00002 10.796ZM6.34102 11.549L0.861022 6.75298C0.753613 6.65912 0.667527 6.54337 0.608543 6.41349C0.549559 6.28362 0.519043 6.14262 0.519043 5.99998C0.519043 5.85734 0.549559 5.71635 0.608543 5.58647C0.667527 5.4566 0.753613 5.34084 0.861022 5.24698L6.34102 0.450983C6.48562 0.324294 6.66367 0.241969 6.85385 0.213867C7.04402 0.185765 7.23827 0.213078 7.41333 0.292534C7.58839 0.37199 7.73683 0.500221 7.84088 0.661871C7.94493 0.823521 8.00019 1.01174 8.00002 1.20398V10.796C8.00019 10.9882 7.94493 11.1764 7.84088 11.3381C7.73683 11.4997 7.58839 11.628 7.41333 11.7074C7.23827 11.7869 7.04402 11.8142 6.85385 11.7861C6.66367 11.758 6.48562 11.6757 6.34102 11.549Z" fill="#B5E72E"/>
<path d="M15.481 10.5929V1.00086L9.99998 5.79686L15.481 10.5929ZM14.822 11.3459L9.34198 6.54986C9.23457 6.456 9.14848 6.34024 9.0895 6.21037C9.03052 6.08049 9 5.9395 9 5.79686C9 5.65422 9.03052 5.51322 9.0895 5.38335C9.14848 5.25347 9.23457 5.13772 9.34198 5.04386L14.822 0.247858C14.9666 0.121169 15.1446 0.0388441 15.3348 0.0107422C15.525 -0.0173596 15.7192 0.00995282 15.8943 0.0894087C16.0693 0.168865 16.2178 0.297096 16.3218 0.458746C16.4259 0.620396 16.4811 0.808614 16.481 1.00086V10.5929C16.4811 10.7851 16.4259 10.9733 16.3218 11.135C16.2178 11.2966 16.0693 11.4249 15.8943 11.5043C15.7192 11.5838 15.525 11.6111 15.3348 11.583C15.1446 11.5549 14.9666 11.4725 14.822 11.3459Z" fill="#B5E72E"/>
</svg>
