<svg width="23" height="8" viewBox="0 0 23 8" fill="none" xmlns="http://www.w3.org/2000/svg">
<path d="M6.384 3.464C6.384 3.488 6.376 3.528 6.36 3.584C6.352 3.632 6.34 3.684 6.324 3.74C6.308 3.796 6.292 3.848 6.276 3.896C6.268 3.944 6.264 3.98 6.264 4.004C5.984 4.028 5.8 4.052 5.712 4.076C5.632 4.092 5.584 4.1 5.568 4.1H4.764C4.644 4.1 4.552 4.1 4.488 4.1C4.424 4.092 4.372 4.088 4.332 4.088C4.3 4.088 4.276 4.092 4.26 4.1C4.244 4.1 4.22 4.104 4.188 4.112L3.936 4.268L3.564 4.1C3.556 4.06 3.516 4.016 3.444 3.968C3.38 3.92 3.336 3.864 3.312 3.8L3.696 3.272C3.856 3.272 3.94 3.276 3.948 3.284C3.964 3.284 3.968 3.28 3.96 3.272C3.96 3.264 3.984 3.256 4.032 3.248C4.08 3.232 4.136 3.22 4.2 3.212L4.38 3.176C4.436 3.168 4.696 3.18 5.16 3.212C5.168 3.212 5.224 3.232 5.328 3.272C5.368 3.288 5.468 3.284 5.628 3.26C5.796 3.228 5.984 3.212 6.192 3.212L6.384 3.464ZM6.432 6.728C6.416 6.776 6.404 6.832 6.396 6.896C6.396 6.96 6.404 7.004 6.42 7.028C6.404 7.044 6.356 7.064 6.276 7.088C6.196 7.112 6.084 7.152 5.94 7.208C5.788 7.248 5.644 7.256 5.508 7.232C5.372 7.208 5.24 7.212 5.112 7.244C4.72 7.244 4.316 7.304 3.9 7.424C3.788 7.456 3.692 7.484 3.612 7.508C3.532 7.532 3.464 7.552 3.408 7.568C3.376 7.584 3.344 7.596 3.312 7.604C3.288 7.604 3.264 7.608 3.24 7.616L2.304 7.652C2.232 7.676 2.156 7.684 2.076 7.676C1.996 7.66 1.916 7.644 1.836 7.628C1.756 7.604 1.684 7.58 1.62 7.556C1.556 7.532 1.504 7.52 1.464 7.52C1.424 7.52 1.356 7.524 1.26 7.532C1.164 7.532 1.076 7.532 0.996 7.532C0.916 7.476 0.844 7.42 0.78 7.364C0.716 7.3 0.712 7.192 0.768 7.04C0.784 6.96 0.812 6.88 0.852 6.8C0.9 6.712 0.916 6.624 0.9 6.536C0.892 6.504 0.872 6.452 0.84 6.38C0.816 6.308 0.796 6.232 0.78 6.152C0.772 6.072 0.772 5.992 0.78 5.912C0.796 5.832 0.84 5.764 0.912 5.708C0.976 5.604 1.004 5.508 0.996 5.42C0.988 5.324 0.952 5.224 0.888 5.12C0.936 5.064 0.964 5 0.972 4.928C0.988 4.848 0.992 4.772 0.984 4.7C0.976 4.628 0.96 4.564 0.936 4.508C0.92 4.452 0.904 4.412 0.888 4.388C0.912 4.276 0.936 4.128 0.96 3.944C0.984 3.752 1.004 3.56 1.02 3.368C1.044 3.168 1.06 2.984 1.068 2.816C1.076 2.648 1.076 2.524 1.068 2.444C1.06 2.34 1.068 2.232 1.092 2.12C1.116 2.008 1.144 1.896 1.176 1.784C1.208 1.664 1.232 1.548 1.248 1.436C1.264 1.324 1.26 1.22 1.236 1.124L1.26 1.052C1.276 1.036 1.248 0.912 1.176 0.68L1.368 0.26H1.38C1.54 0.252 1.704 0.244 1.872 0.236C2.04 0.228 2.192 0.22 2.328 0.211999C2.472 0.204 2.588 0.2 2.676 0.2C2.772 0.192 2.824 0.188 2.832 0.188H4.488C4.544 0.188 4.616 0.216 4.704 0.271999C4.8 0.32 5.12 0.344 5.664 0.344C5.672 0.376 5.68 0.408 5.688 0.439999C5.696 0.471999 5.704 0.503999 5.712 0.536C5.736 0.68 5.764 0.792 5.796 0.872L5.724 0.991999C5.604 1 5.512 1.004 5.448 1.004C5.384 1.004 5.336 1.004 5.304 1.004C5.28 0.996 5.264 0.991999 5.256 0.991999C5.248 0.983999 5.24 0.98 5.232 0.98L4.296 0.86C4.064 0.812 3.776 0.84 3.432 0.944C3.28 0.984 3.156 0.996 3.06 0.98C2.964 0.956 2.9 0.952 2.868 0.968C2.772 0.936 2.692 0.936 2.628 0.968C2.564 1 2.544 1.06 2.568 1.148C2.592 1.228 2.62 1.276 2.652 1.292C2.684 1.308 2.708 1.34 2.724 1.388C2.708 1.412 2.712 1.448 2.736 1.496C2.768 1.536 2.804 1.576 2.844 1.616C2.892 1.664 2.94 1.696 2.988 1.712C3.036 1.72 3.06 1.728 3.06 1.736C3.06 1.752 3.04 1.836 3 1.988C2.96 2.132 2.928 2.308 2.904 2.516C2.88 2.724 2.872 2.948 2.88 3.188C2.896 3.428 2.956 3.652 3.06 3.86C3.02 3.948 2.984 4.116 2.952 4.364C2.92 4.604 2.892 4.852 2.868 5.108C2.852 5.364 2.84 5.596 2.832 5.804C2.824 6.004 2.82 6.112 2.82 6.128C2.812 6.128 2.8 6.144 2.784 6.176C2.776 6.2 2.764 6.228 2.748 6.26C2.732 6.292 2.712 6.32 2.688 6.344C2.664 6.36 2.636 6.36 2.604 6.344V6.452C2.604 6.452 2.628 6.452 2.676 6.452H2.724C2.716 6.492 2.712 6.548 2.712 6.62C2.712 6.692 2.708 6.752 2.7 6.8L3.612 6.68C3.772 6.696 3.956 6.7 4.164 6.692C4.38 6.684 4.62 6.656 4.884 6.608C5.148 6.568 5.364 6.556 5.532 6.572C5.7 6.588 5.824 6.56 5.904 6.488L6.204 6.476L6.432 6.728ZM14.0198 7.352L13.5998 7.424C13.5038 7.44 13.4038 7.44 13.2998 7.424C13.1958 7.408 13.0878 7.4 12.9758 7.4C12.9518 7.4 12.9158 7.4 12.8678 7.4C12.8198 7.4 12.7638 7.4 12.6998 7.4C12.6438 7.4 12.5878 7.404 12.5318 7.412C12.4758 7.412 12.4278 7.412 12.3878 7.412L12.1238 7.232C12.1478 7.072 12.1398 6.956 12.0998 6.884C12.0678 6.812 12.0438 6.744 12.0278 6.68C12.0118 6.632 11.9798 6.556 11.9318 6.452C11.8838 6.348 11.8398 6.228 11.7998 6.092C11.7998 6.068 11.7598 5.996 11.6798 5.876C11.5998 5.756 11.5358 5.648 11.4878 5.552L11.3438 5.612C11.3038 5.612 11.2598 5.624 11.2118 5.648C11.1638 5.672 11.0438 5.684 10.8518 5.684C10.8278 5.636 10.7878 5.604 10.7318 5.588C10.6758 5.564 10.6118 5.56 10.5398 5.576C10.4758 5.584 10.4078 5.608 10.3358 5.648C10.2718 5.688 10.2158 5.736 10.1678 5.792L9.67575 5.864C9.64375 5.792 9.60775 5.736 9.56775 5.696C9.53575 5.648 9.49975 5.604 9.45975 5.564C9.42775 5.524 9.39975 5.48 9.37575 5.432C9.35175 5.384 9.33975 5.32 9.33975 5.24C9.49975 5.2 9.59175 5.148 9.61575 5.084C9.64775 5.02 9.67175 4.992 9.68775 5C9.73575 5.024 9.77975 5.036 9.81975 5.036C9.76375 5.036 9.74775 5.028 9.77175 5.012C9.79575 4.996 9.90375 4.956 10.0958 4.892L10.9718 4.784L11.1518 4.916C11.2798 4.948 11.3758 4.956 11.4398 4.94C11.5038 4.924 11.5478 4.896 11.5718 4.856C11.5958 4.808 11.6078 4.756 11.6078 4.7C11.6158 4.644 11.6238 4.596 11.6318 4.556C11.6478 4.468 11.6278 4.396 11.5718 4.34C11.5238 4.276 11.4558 4.22 11.3678 4.172C11.3518 4.084 11.3198 3.984 11.2718 3.872C11.2318 3.752 11.1798 3.612 11.1158 3.452C11.0598 3.3 11.0078 3.14 10.9598 2.972C10.9198 2.796 10.8838 2.636 10.8518 2.492C10.8198 2.348 10.7958 2.228 10.7798 2.132C10.7638 2.036 10.7518 1.98 10.7438 1.964C10.6318 1.892 10.5398 1.888 10.4678 1.952C10.3958 2.008 10.3358 2.092 10.2878 2.204C10.2478 2.316 10.2198 2.436 10.2038 2.564C10.1958 2.684 10.1958 2.768 10.2038 2.816C10.1958 2.832 10.1758 2.86 10.1438 2.9C10.1118 2.932 10.0758 2.968 10.0358 3.008C9.99575 3.048 9.95975 3.088 9.92775 3.128C9.89575 3.16 9.87575 3.184 9.86775 3.2C9.83575 3.256 9.82775 3.316 9.84375 3.38C9.85975 3.444 9.84775 3.5 9.80775 3.548C9.64775 3.836 9.45975 4.064 9.24375 4.232C9.18775 4.28 9.14375 4.348 9.11175 4.436C9.07975 4.524 9.05975 4.616 9.05175 4.712C9.04375 4.808 9.05175 4.904 9.07575 5C9.09975 5.088 9.14375 5.16 9.20775 5.216C9.12775 5.264 9.06375 5.316 9.01575 5.372C8.97575 5.42 8.93975 5.476 8.90775 5.54C8.88375 5.596 8.85975 5.66 8.83575 5.732C8.81175 5.796 8.78375 5.868 8.75175 5.948C8.61575 6.308 8.54775 6.496 8.54775 6.512L8.37975 6.86L8.22375 7.496C8.23175 7.616 8.18775 7.688 8.09175 7.712C8.00375 7.736 7.85975 7.748 7.65975 7.748C7.46775 7.796 7.29975 7.82 7.15575 7.82C7.01175 7.812 6.96375 7.736 7.01175 7.592C7.21975 7.096 7.37175 6.728 7.46775 6.488C7.57175 6.24 7.62375 6.052 7.62375 5.924C7.62375 5.884 7.63975 5.852 7.67175 5.828C7.71175 5.796 7.74375 5.772 7.76775 5.756C7.77575 5.74 7.80375 5.656 7.85175 5.504C7.90775 5.352 7.96775 5.184 8.03175 5C8.09575 4.808 8.15575 4.628 8.21175 4.46C8.27575 4.284 8.32375 4.164 8.35575 4.1C8.42775 3.948 8.51175 3.776 8.60775 3.584C8.71175 3.392 8.83175 3.208 8.96775 3.032C9.03975 2.936 9.09975 2.804 9.14775 2.636C9.20375 2.468 9.25575 2.284 9.30375 2.084C9.35175 1.884 9.40375 1.68 9.45975 1.472C9.51575 1.264 9.58775 1.072 9.67575 0.896C9.72375 0.88 9.86375 0.704 10.0958 0.368C10.1118 0.352 10.1238 0.336 10.1318 0.319999C10.1478 0.296 10.1638 0.276 10.1798 0.26L11.7158 0.163999C11.7478 0.204 11.7838 0.252 11.8238 0.308C11.8638 0.364 11.9078 0.424 11.9558 0.487999C12.1078 0.679999 12.1998 0.832 12.2318 0.944C12.2638 1.056 12.2838 1.132 12.2918 1.172C12.2758 1.196 12.3598 1.468 12.5438 1.988C12.5918 2.116 12.6318 2.26 12.6638 2.42C12.6958 2.58 12.7198 2.732 12.7358 2.876C12.7518 3.012 12.7598 3.132 12.7598 3.236C12.7598 3.332 12.7558 3.384 12.7478 3.392C12.7318 3.4 12.8598 3.5 13.1318 3.692C13.1958 3.74 13.2318 3.784 13.2398 3.824C13.2558 3.864 13.2558 3.9 13.2398 3.932C13.2318 3.964 13.2158 3.992 13.1918 4.016C13.1678 4.04 13.1558 4.056 13.1558 4.064L13.4798 4.496C13.4798 4.496 13.5718 4.844 13.7558 5.54C13.8598 5.876 13.9358 6.164 13.9838 6.404C14.0318 6.636 14.0558 6.816 14.0558 6.944C14.0558 6.96 14.0598 6.972 14.0678 6.98C14.0678 6.972 14.0758 6.992 14.0918 7.04L14.0198 7.352ZM15.4661 7.268V6.98C15.4661 6.892 15.4581 6.808 15.4421 6.728C15.4821 6.656 15.4861 6.44 15.4541 6.08C15.4381 5.888 15.4221 5.732 15.4061 5.612C15.3981 5.492 15.3941 5.408 15.3941 5.36V5.264C15.3941 5.232 15.3941 5.2 15.3941 5.168C15.4021 5.128 15.4101 5.088 15.4181 5.048C15.4261 4.864 15.4381 4.74 15.4541 4.676C15.4621 4.652 15.4821 4.62 15.5141 4.58C15.5461 4.532 15.5621 4.484 15.5621 4.436C15.5621 4.076 15.5781 3.692 15.6101 3.284C15.6501 2.868 15.6741 2.48 15.6821 2.12C15.6901 1.84 15.6941 1.616 15.6941 1.448C15.6941 1.28 15.6981 1.176 15.7061 1.136C15.7141 1.032 15.7141 0.92 15.7061 0.8C15.7061 0.671999 15.7061 0.551999 15.7061 0.439999C15.7061 0.416 15.7021 0.4 15.6941 0.392L16.0061 0.14H17.0501C17.1621 0.124 17.2421 0.12 17.2901 0.128C17.3381 0.136 17.3701 0.148 17.3861 0.163999L17.6501 0.356C17.7221 0.444 17.7821 0.496 17.8301 0.512C17.8861 0.52 17.9301 0.508 17.9621 0.476C18.0021 0.436 18.0381 0.388 18.0701 0.331999C18.1021 0.268 18.1341 0.208 18.1661 0.151999L18.8021 0.188L19.7501 0.584C19.7821 0.616 19.8101 0.648 19.8341 0.68C19.8581 0.704 19.8821 0.724 19.9061 0.74C19.9461 0.78 19.9821 0.816 20.0141 0.848C20.0541 0.88 20.0821 0.896 20.0981 0.896C20.1141 0.896 20.1901 0.916 20.3261 0.956C20.4701 0.996 20.5981 1.108 20.7101 1.292C20.7981 1.292 20.8861 1.32 20.9741 1.376C21.0701 1.432 21.1501 1.496 21.2141 1.568C21.2781 1.632 21.3261 1.696 21.3581 1.76C21.3981 1.816 21.4101 1.848 21.3941 1.856C21.2581 1.984 21.2141 2.096 21.2621 2.192C21.3181 2.288 21.3981 2.356 21.5021 2.396C21.5341 2.532 21.5981 2.628 21.6941 2.684C21.7901 2.732 21.8621 2.768 21.9101 2.792C21.9101 2.816 21.9181 2.94 21.9341 3.164C21.9501 3.38 21.9741 3.696 22.0061 4.112C22.0221 4.32 22.0381 4.504 22.0541 4.664C22.0701 4.816 22.0861 4.944 22.1021 5.048C22.1181 5.112 22.1301 5.172 22.1381 5.228C22.1461 5.276 22.1541 5.32 22.1621 5.36C22.1701 5.4 22.0341 5.628 21.7541 6.044C21.4661 6.444 21.3221 6.712 21.3221 6.848H20.6861C20.6541 6.848 20.6141 6.864 20.5661 6.896C20.5181 6.92 20.4701 6.948 20.4221 6.98L20.2301 7.1C20.2061 7.108 20.1821 7.112 20.1581 7.112C20.1341 7.112 20.1061 7.116 20.0741 7.124C20.0261 7.132 19.9621 7.14 19.8821 7.148C19.8101 7.156 19.7261 7.168 19.6301 7.184C19.4301 7.224 19.2621 7.248 19.1261 7.256C18.9901 7.264 18.8781 7.26 18.7901 7.244C18.7821 7.14 18.5101 7.172 17.9741 7.34C17.8381 7.38 17.6981 7.416 17.5541 7.448C17.4101 7.472 17.2781 7.492 17.1581 7.508C17.0861 7.524 17.0141 7.536 16.9421 7.544C16.8781 7.552 16.8141 7.56 16.7501 7.568L16.4861 7.508C16.4381 7.516 16.3901 7.528 16.3421 7.544C16.2941 7.552 16.2621 7.556 16.2461 7.556C16.2221 7.556 16.1861 7.548 16.1381 7.532C16.0981 7.516 16.0621 7.508 16.0301 7.508C16.0141 7.508 15.9781 7.512 15.9221 7.52C15.8741 7.52 15.8421 7.528 15.8261 7.544L15.4661 7.268ZM17.7941 6.812C17.8741 6.78 17.9581 6.736 18.0461 6.68C18.1421 6.616 18.2221 6.596 18.2861 6.62H18.6221C18.6381 6.62 18.6741 6.6 18.7301 6.56C18.7861 6.512 18.8261 6.488 18.8501 6.488C18.8821 6.488 18.8981 6.504 18.8981 6.536C18.8981 6.56 18.9421 6.572 19.0301 6.572C19.0621 6.572 19.1381 6.556 19.2581 6.524C19.3781 6.484 19.5061 6.432 19.6421 6.368C19.7861 6.304 19.8981 6.256 19.9781 6.224C20.0661 6.192 20.1181 6.172 20.1341 6.164C20.1421 6.148 20.1461 6.128 20.1461 6.104C20.1541 6.08 20.1661 6.052 20.1821 6.02C20.1981 5.972 20.2141 5.916 20.2301 5.852C20.2541 5.788 20.2861 5.712 20.3261 5.624C20.3821 5.432 20.4261 5.284 20.4581 5.18C20.4901 5.076 20.5061 5.004 20.5061 4.964L20.1221 3.548C20.1221 3.492 20.1261 3.448 20.1341 3.416C20.1341 3.376 20.1341 3.328 20.1341 3.272C20.1421 3.208 20.1501 3.132 20.1581 3.044C20.1901 2.7 20.2101 2.528 20.2181 2.528C20.2101 2.52 20.1821 2.476 20.1341 2.396C20.0941 2.316 20.0341 2.208 19.9541 2.072C19.8741 1.928 19.8061 1.78 19.7501 1.628C19.7021 1.468 19.6621 1.388 19.6301 1.388L18.6821 0.775999H17.7821C17.7821 0.872 17.7621 0.928 17.7221 0.944C17.6821 0.952 17.6621 0.964 17.6621 0.98V1.196C17.6621 1.26 17.6621 1.336 17.6621 1.424C17.6621 1.512 17.6581 1.612 17.6501 1.724V2.516C17.5141 2.588 17.4381 2.672 17.4221 2.768C17.4221 2.84 17.3861 2.952 17.3141 3.104C17.2981 3.12 17.2901 3.148 17.2901 3.188C17.2901 3.3 17.2901 3.38 17.2901 3.428C17.2981 3.468 17.2901 3.54 17.2661 3.644C17.2501 3.66 17.2661 3.8 17.3141 4.064C17.3621 4.344 17.3901 4.488 17.3981 4.496C17.3901 4.536 17.3781 4.592 17.3621 4.664C17.3541 4.736 17.3381 4.82 17.3141 4.916C17.2901 5.012 17.2741 5.084 17.2661 5.132C17.2581 5.18 17.2541 5.212 17.2541 5.228C17.2541 5.324 17.2661 5.496 17.2901 5.744C17.2981 5.872 17.3021 5.984 17.3021 6.08C17.3101 6.168 17.3141 6.232 17.3141 6.272C17.3301 6.336 17.3421 6.4 17.3501 6.464C17.3661 6.528 17.3821 6.596 17.3981 6.668L17.7941 6.812Z" fill="url(#paint0_linear_307_2)"/>
<defs>
<linearGradient id="paint0_linear_307_2" x1="0.5" y1="-2" x2="19.5" y2="8.5" gradientUnits="userSpaceOnUse">
<stop stop-color="#6338BE"/>
<stop offset="0.467025" stop-color="#1A16FA"/>
<stop offset="1" stop-color="#31A767"/>
</linearGradient>
</defs>
</svg>
