<svg width="17" height="9" viewBox="0 0 17 9" fill="none" xmlns="http://www.w3.org/2000/svg">
<path d="M0.576 9V0.599999H4.884V2.04H2.22V4.044H4.596V5.436H2.22V7.608H4.932V9H0.576ZM9.43716 9L9.18516 7.668H7.28916L7.03716 9H5.40516L7.02516 0.599999H9.50916L11.0452 9H9.43716ZM8.21316 2.16L7.74516 4.956L7.48116 6.384H8.98116L8.70516 4.956L8.23716 2.16H8.21316ZM13.376 7.608H14.456C14.68 7.328 14.856 6.92 14.984 6.384C15.12 5.848 15.188 5.316 15.188 4.788C15.188 3.532 14.952 2.616 14.48 2.04H13.376V7.608ZM11.744 9V0.599999H15.224C16.36 1.608 16.928 2.976 16.928 4.704C16.928 6.424 16.396 7.856 15.332 9H11.744Z" fill="url(#paint0_linear_307_2)"/>
<defs>
<linearGradient id="paint0_linear_307_2" x1="-1.38337e-07" y1="5" x2="14.024" y2="-2.46723" gradientUnits="userSpaceOnUse">
<stop stop-color="#5D9AD2"/>
<stop offset="0.526042" stop-color="#39C4C4"/>
<stop offset="1" stop-color="#4FF39B"/>
</linearGradient>
</defs>
</svg>
