<svg width="16" height="12" viewBox="0 0 16 12" fill="none" xmlns="http://www.w3.org/2000/svg">
<path d="M1 10.5944V1.00235L6.481 5.79835L1 10.5944ZM1.659 11.3474L7.139 6.55135C7.24641 6.45749 7.3325 6.34174 7.39148 6.21186C7.45046 6.08198 7.48098 5.94099 7.48098 5.79835C7.48098 5.65571 7.45046 5.51472 7.39148 5.38484C7.3325 5.25497 7.24641 5.13921 7.139 5.04535L1.66 0.249351C1.011 -0.316649 3.67706e-07 0.143351 3.67706e-07 1.00235V10.5944C-0.000164459 10.7866 0.0550878 10.9748 0.159141 11.1365C0.263194 11.2981 0.411637 11.4263 0.586693 11.5058C0.761749 11.5853 0.955998 11.6126 1.14618 11.5845C1.33636 11.5564 1.51441 11.474 1.659 11.3474Z" fill="#B5E72E"/>
<path d="M9 10.5944V1.00235L14.481 5.79835L9 10.5944ZM9.659 11.3474L15.139 6.55135C15.2464 6.45749 15.3325 6.34174 15.3915 6.21186C15.4505 6.08198 15.481 5.94099 15.481 5.79835C15.481 5.65571 15.4505 5.51472 15.3915 5.38484C15.3325 5.25497 15.2464 5.13921 15.139 5.04535L9.66 0.249351C9.011 -0.316649 8 0.143351 8 1.00235V10.5944C7.99984 10.7866 8.05509 10.9748 8.15914 11.1365C8.26319 11.2981 8.41164 11.4263 8.58669 11.5058C8.76175 11.5853 8.956 11.6126 9.14618 11.5845C9.33636 11.5564 9.51441 11.474 9.659 11.3474Z" fill="#B5E72E"/>
</svg>
