<svg width="97" height="97" viewBox="0 0 97 97" fill="none" xmlns="http://www.w3.org/2000/svg">
<path d="M63.6562 48.5C63.6562 52.5197 62.0594 56.3747 59.2171 59.2171C56.3747 62.0594 52.5197 63.6562 48.5 63.6562C44.4803 63.6562 40.6253 62.0594 37.7829 59.2171C34.9406 56.3747 33.3438 52.5197 33.3438 48.5C33.3438 44.4803 34.9406 40.6253 37.7829 37.7829C40.6253 34.9406 44.4803 33.3438 48.5 33.3438C52.5197 33.3438 56.3747 34.9406 59.2171 37.7829C62.0594 40.6253 63.6562 44.4803 63.6562 48.5Z" fill="#B5E72E"/>
<path d="M0 48.5C0 48.5 18.1875 15.1562 48.5 15.1562C78.8125 15.1562 97 48.5 97 48.5C97 48.5 78.8125 81.8438 48.5 81.8438C18.1875 81.8438 0 48.5 0 48.5ZM48.5 69.7188C54.1276 69.7188 59.5246 67.4832 63.5039 63.5039C67.4832 59.5246 69.7188 54.1276 69.7188 48.5C69.7188 42.8724 67.4832 37.4754 63.5039 33.4961C59.5246 29.5168 54.1276 27.2812 48.5 27.2812C42.8724 27.2812 37.4754 29.5168 33.4961 33.4961C29.5168 37.4754 27.2813 42.8724 27.2812 48.5C27.2813 54.1276 29.5168 59.5246 33.4961 63.5039C37.4754 67.4832 42.8724 69.7187 48.5 69.7188Z" fill="#B5E72E"/>
</svg>
