<svg width="33" height="33" viewBox="0 0 33 33" fill="none" xmlns="http://www.w3.org/2000/svg">
<path d="M22 28.875V26.125C22 24.6663 21.4205 23.2674 20.3891 22.2359C19.3576 21.2045 17.9587 20.625 16.5 20.625H6.875C5.41631 20.625 4.01736 21.2045 2.98591 22.2359C1.95446 23.2674 1.375 24.6663 1.375 26.125V28.875" stroke="black" stroke-width="2" stroke-linecap="round" stroke-linejoin="round"/>
<path d="M11.6875 15.125C14.7251 15.125 17.1875 12.6626 17.1875 9.625C17.1875 6.58743 14.7251 4.125 11.6875 4.125C8.64993 4.125 6.1875 6.58743 6.1875 9.625C6.1875 12.6626 8.64993 15.125 11.6875 15.125Z" stroke="black" stroke-width="2" stroke-linecap="round" stroke-linejoin="round"/>
<path d="M23.375 15.125L26.125 17.875L31.625 12.375" stroke="black" stroke-width="2" stroke-linecap="round" stroke-linejoin="round"/>
</svg>
