<svg width="31" height="31" viewBox="0 0 31 31" fill="none" xmlns="http://www.w3.org/2000/svg">
<path d="M24.5417 14.2083H6.45833C5.0316 14.2083 3.875 15.3648 3.875 16.7916V25.8333C3.875 27.26 5.0316 28.4166 6.45833 28.4166H24.5417C25.9684 28.4166 27.125 27.26 27.125 25.8333V16.7916C27.125 15.3648 25.9684 14.2083 24.5417 14.2083Z" stroke="black" stroke-width="2" stroke-linecap="round" stroke-linejoin="round"/>
<path d="M9.0415 14.2083V9.04159C9.0415 7.32873 9.72193 5.68603 10.9331 4.47485C12.1443 3.26368 13.787 2.58325 15.4998 2.58325C17.2127 2.58325 18.8554 3.26368 20.0666 4.47485C21.2777 5.68603 21.9582 7.32873 21.9582 9.04159V14.2083" stroke="black" stroke-width="2" stroke-linecap="round" stroke-linejoin="round"/>
</svg>
