<svg width="1074" height="1018" viewBox="0 0 1074 1018" fill="none" xmlns="http://www.w3.org/2000/svg">
<path d="M150 700L100 75H700L650 700L400 775L150 700Z" fill="#E44D26"/>
<path d="M650 125H400V737.5L600 675L650 125Z" fill="#F16529"/>
<path d="M237.5 437.5L212.5 200H600L587.5 275H287.5L300 362.5H575L550 600L400 650L250 600L237.5 475H312.5L325 537.5L400 562.5L475 537.5L487.5 437.5H237.5Z" fill="white"/>
<path d="M512.15 948.025L456 318H1073.2L1016.97 947.925L764.225 1018L512.15 948.025Z" fill="#1572B6"/>
<path d="M764.6 964.45L968.85 907.825L1016.9 369.525H764.6V964.45Z" fill="#33A9DC"/>
<path d="M764.6 597.775H866.85L873.9 518.65H764.6V441.375H764.875H958.35L956.5 462.1L937.525 675.05H764.6V597.775Z" fill="white"/>
<path d="M765.075 798.45L764.725 798.55L678.675 775.3L673.175 713.675H631.35H595.6L606.425 835L764.7 878.95L765.075 878.85V798.45Z" fill="#EBEBEB"/>
<path d="M860.275 671.775L850.975 775.25L764.8 798.5V878.9L923.2 835L924.375 821.95L937.8 671.775H860.275Z" fill="white"/>
<path d="M764.875 441.375V489.375V518.45V518.65H578.475H578.225L576.675 501.275L573.15 462.1L571.3 441.375H764.875Z" fill="#EBEBEB"/>
<path d="M764.6 597.775V645.775V674.85V675.05H679.875H679.625L678.075 657.675L674.575 618.5L672.725 597.775H764.6Z" fill="#EBEBEB"/>
</svg>
